<svg xmlns="http://www.w3.org/2000/svg" xmlns:xlink="http://www.w3.org/1999/xlink" width="178" height="70" viewBox="0 0 178 70"><defs><clipPath id="a"><path d="M0-386.251H279.616v181.432H0Z" transform="translate(0 386.251)"/></clipPath><clipPath id="c"><rect width="178" height="70"/></clipPath></defs><g id="b" clip-path="url(#c)"><rect width="178" height="70" fill="#fff"/><g transform="translate(-54 -57)"><path d="M0-204.819H279.616V-386.251H0Z" transform="translate(0 386.251)" fill="#e62028"/><g clip-path="url(#a)"><path d="M-151.585-25.527l9,10.831.582.7c.772.921,1.283,1.381,1.543,1.381.239,0,.372-.365.395-1.107q.149-4.034.152-7.682c0-2.857-.268-4.787-.807-5.8a3.6,3.6,0,0,0-3.169-1.692c-.377-.027-.561-.162-.561-.425,0-.316.162-.473.491-.473a17.3,17.3,0,0,1,1.974.181,12.118,12.118,0,0,0,1.461.111,31.36,31.36,0,0,0,3.727-.347c.225-.026.395-.039.493-.039.367,0,.546.17.546.512,0,.306-.179.486-.546.548q-2.195.438-2.192,4.175v.9l-.239,11.4-.069,1.567-.019,2.03.019,1.388.069,2.277c0,.344-.117.5-.343.493a.945.945,0,0,1-.626-.4l-15.482-18.443c-.271-.318-.458-.473-.562-.473-.272,0-.407.272-.407.815l-.017.529V-15.5a34.548,34.548,0,0,0,.528,7.587q.558,2.046,3.314,2.318c.341.035.511.185.511.459a.477.477,0,0,1-.529.548,4.647,4.647,0,0,1-.663-.075,18.242,18.242,0,0,0-3.167-.256,15.606,15.606,0,0,0-3.059.273,5.437,5.437,0,0,1-.869.113.4.4,0,0,1-.458-.442c0-.243.161-.412.493-.51a2.846,2.846,0,0,0,1.81-1.577A8.179,8.179,0,0,0-157.7-10.5l.124-4.338v-7.912q0-5.613-3.859-5.908c-.355-.025-.528-.174-.528-.46,0-.341.191-.51.58-.51l1.172.056.714-.021a27.912,27.912,0,0,0,2.843-.161c.374-.037.684-.058.932-.058a1.281,1.281,0,0,1,.837.251,11.811,11.811,0,0,1,1.29,1.5l1.17,1.473c.464.587.745.942.836,1.061m-22.525.067V-21.5a5.9,5.9,0,0,0,.233,2.154c.151.3.521.453,1.107.453l.511-.016.746-.018h1.447a2.867,2.867,0,0,0,2.606-1.993l.388-.89a.567.567,0,0,1,.511-.351c.249-.012.372.152.372.493,0,.1-.017.366-.053.8q-.035.478-.036.8c0,.392.052,1.3.152,2.739q.1,1.411.105,2.445l.016.936a.729.729,0,0,1-.052.341.328.328,0,0,1-.274.131c-.282.027-.457-.206-.526-.691a4.039,4.039,0,0,0-1.021-2.358,2.011,2.011,0,0,0-1.08-.562,14.286,14.286,0,0,0-2.384-.129h-1.153a1.764,1.764,0,0,0-1.117.26A1.754,1.754,0,0,0-174-15.879,28.113,28.113,0,0,0-174.11-13v1.644a12.987,12.987,0,0,0,.373,3.7,2.391,2.391,0,0,0,.682,1.11,2.053,2.053,0,0,0,1.208.291q6.894,0,9.024-4.506c.081-.144.144-.225.2-.238a.308.308,0,0,1,.314.119.549.549,0,0,1,.146.393,7.276,7.276,0,0,1-.9,3.467,4.784,4.784,0,0,1-1.869,2.036,6.261,6.261,0,0,1-2.977.609,22.753,22.753,0,0,1-2.413-.144l-1.973-.2q-1.09-.109-2.943-.11-1.235,0-3.772.163c-.463.037-.8.056-1,.056a.4.4,0,0,1-.442-.4.505.505,0,0,1,.373-.494,3.285,3.285,0,0,0,1.322-.847A3.864,3.864,0,0,0-178.2-7.95a14.944,14.944,0,0,0,.186-2.626V-25.029a4.441,4.441,0,0,0-.623-2.77,4.216,4.216,0,0,0-2.576-1.023.484.484,0,0,1-.459-.527c0-.281.188-.424.565-.424.074,0,.251.012.511.036.2.014.481.019.828.019l1.719.067,6.44.078q5.56,0,6.851-.163a1.906,1.906,0,0,1,.237-.018c.33,0,.495.2.495.6,0,.279.035.778.1,1.493.087,1.052.134,1.811.134,2.278q0,1.384-.664,1.42c-.214.014-.323-.254-.323-.8a2.926,2.926,0,0,0-1.228-2.623,7.5,7.5,0,0,0-3.986-.809h-2.08l-1.155.147c-.575.2-.864.807-.864,1.841Zm-20.743-4.662a16.288,16.288,0,0,1,6.648,1.769,4.379,4.379,0,0,0,1.236.441.62.62,0,0,0,.432-.179l.182-.187a.615.615,0,0,1,.409-.2c.34-.01.508.208.508.657l-.017,1.273-.068,2.5.05,1.315c.026.324.06.679.106,1.054.012.148.017.254.017.33,0,.391-.174.572-.528.549-.238-.015-.4-.27-.478-.768a8.581,8.581,0,0,0-2.157-4.282,7.942,7.942,0,0,0-6.2-2.952,6.493,6.493,0,0,0-5.547,2.927,13.184,13.184,0,0,0-2.085,7.8A16.725,16.725,0,0,0-200.2-9.3q2.15,3.555,5.291,3.56a8.351,8.351,0,0,0,2.378-.449,7.865,7.865,0,0,0,2.195-.972,2.463,2.463,0,0,0,.946-1.386,11.033,11.033,0,0,0,.262-2.82,4.728,4.728,0,0,0-.733-3.034,3.806,3.806,0,0,0-2.734-.956c-.352-.025-.527-.2-.527-.531s.206-.5.611-.5c.126,0,.324.012.6.035q1.665.161,3.774.164a29.4,29.4,0,0,0,3.2-.125,9.172,9.172,0,0,1,1.275-.111c.408,0,.611.162.611.477,0,.3-.2.481-.611.57a1.8,1.8,0,0,0-1.361,1.126,8.966,8.966,0,0,0-.372,3.081c0,.448.016.852.052,1.2.047.611.07,1.032.07,1.276a1.333,1.333,0,0,1-.216.832,2.136,2.136,0,0,1-.86.519c-.26.1-1.158.5-2.7,1.219a17.388,17.388,0,0,1-7.085,1.881,9.516,9.516,0,0,1-7.509-3.338,12.642,12.642,0,0,1-2.911-8.627,14.858,14.858,0,0,1,3.365-9.91,10.476,10.476,0,0,1,8.343-4m-19.654,15.613v5.376l.089,1.24q.285,2.055,3.394,2.242c.365.024.546.193.546.517,0,.354-.256.529-.768.529a7.6,7.6,0,0,1-.881-.056l-2.412-.218a19.26,19.26,0,0,0-1.991-.074,28.386,28.386,0,0,0-4.229.2,6.206,6.206,0,0,1-1.023.13c-.26,0-.388-.2-.388-.6,0-.225.157-.357.476-.4a3.709,3.709,0,0,0,2.576-1.316,6.391,6.391,0,0,0,.674-3.428v-3.48a5.136,5.136,0,0,0-.748-2.54c-.593-1.039-1.244-2.3-1.957-3.755l-2.586-5.217q-1.553-3.138-3.623-3.355c-.419-.037-.627-.206-.627-.51,0-.38.156-.567.478-.567a11.924,11.924,0,0,1,1.32.113,29.062,29.062,0,0,0,3.333.218,25.848,25.848,0,0,0,2.8-.162c.7-.074,1.173-.113,1.41-.113.476,0,.714.155.714.461,0,.256-.191.421-.581.511-.871.178-1.306.59-1.306,1.22a10.977,10.977,0,0,0,1.243,3.355l1.327,2.769q.82,1.68,1,2.118c.388.853.76,1.275,1.125,1.275s.835-.615,1.422-1.861c.152-.31.528-1.052,1.136-2.223q1.874-3.6,1.869-4.519a1.883,1.883,0,0,0-.831-1.438,3.576,3.576,0,0,0-1.9-.786c-.366-.047-.547-.193-.547-.44,0-.379.147-.566.442-.566a6.46,6.46,0,0,1,.871.054l1.12.162a12.294,12.294,0,0,0,1.7.094c.378,0,.789-.016,1.242-.055l1.428-.086c.366-.025.813-.039,1.347-.039.306,0,.458.143.458.423q0,.382-.616.529a4.069,4.069,0,0,0-2.066,1.22,16.486,16.486,0,0,0-2,3.392q-2.157,4.464-3.957,7.51a3.253,3.253,0,0,0-.435.913,6.62,6.62,0,0,0-.077,1.24M-242.075-28.9a1.025,1.025,0,0,1-.3.075,1.773,1.773,0,0,0-1,.493,1.08,1.08,0,0,0-.378.859,7.14,7.14,0,0,0,.984,2.575,23.7,23.7,0,0,0,.7-4m-5.429-.605c.118,0,.23,0,.337,0a18.781,18.781,0,0,0,2.2-.111l1.584-.181c.475-.049.836-.074,1.085-.074a.744.744,0,0,1,.275.046,15.641,15.641,0,0,0-.352-4.075c-1.33-5.779-7.093-4.949-8.991-4.286-.095.031-.193.066-.292.1a17.168,17.168,0,0,1,4.15,8.579m-3.6,1.179a5.7,5.7,0,0,0-1.043-.317c-.429-.086-.644-.285-.644-.6,0-.355.179-.529.544-.529.193,0,.511.019.954.056l.117.008a15.119,15.119,0,0,0-2.624-7.221l-.122-.132A22.587,22.587,0,0,0-265.095-22.8c-2.981,11.922,7.84,10.808,11.931,2.707a17.877,17.877,0,0,0,2.056-8.241m6.63,8.229c-.288-.425-.594-.884-.92-1.373q-1.189-1.786-2.074-3.049a18.079,18.079,0,0,1-1.639,5.178c-6.038,12.48-22.1,10.111-18.662-3.161,2.124-8.186,8.237-13.666,12.071-16.2a14.386,14.386,0,0,0-2.93-1.753c-6.278,4.74-10.413,11.864-12.526,15.858-4.841,9.147-5.058,19.939-.693,22.312,2.9,2.22,14.542,1.2,24.255-12.393a32.057,32.057,0,0,0,3.118-5.423m8.11-9.652c.121,0,.324.012.611.037,1.078.082,2.075.124,3.01.124.48,0,1-.018,1.544-.057l2.089-.162c.436-.036.791-.054,1.073-.054a.422.422,0,0,1,.476.479c0,.318-.184.5-.561.566a4.688,4.688,0,0,0-2.258.89,37.475,37.475,0,0,0-4.932,5.378q-2.036,2.606-2.228,2.829-.759.893-.76,1.2a5,5,0,0,0,.98,1.681q.461.614,2.228,3.355a48.277,48.277,0,0,0,4.777,6.406,4.649,4.649,0,0,0,3.11,1.456c.4.039.6.236.6.6,0,.322-.2.492-.611.492q-.276,0-.749-.039l-2.14-.18q-1.547-.13-2.685-.131c-.525,0-1.022.018-1.5.056l-1.869.123c-.639.039-1.1.057-1.375.057-.388,0-.582-.148-.582-.441,0-.342.211-.53.628-.567.922-.075,1.381-.529,1.381-1.37a4.824,4.824,0,0,0-.836-2.06q-.835-1.4-2.994-4.407l-.853-1.19c-.145-.217-.262-.324-.338-.324-.092,0-.225.107-.411.324-.291.357-.643.786-1.05,1.3q-3.891,4.725-3.893,6.113c0,.995.881,1.568,2.651,1.712.379.025.562.187.562.492s-.121.461-.358.461a6.359,6.359,0,0,1-.644-.056,39.877,39.877,0,0,0-4.132-.218c-.39,0-.9.018-1.55.056l-1.514.049-.761.037-.464-.093a.366.366,0,0,1-.15-.312c-.011-.243.133-.4.438-.473a5.86,5.86,0,0,0,2.637-1.457,32.56,32.56,0,0,0,3.556-4.065c1.3-1.679,2.228-2.831,2.785-3.467.841-.97,1.261-1.587,1.261-1.845a3.745,3.745,0,0,0-.676-1.3,27.257,27.257,0,0,1-2.505,4.068c-14.319,18.894-27.058,14.74-28.6,14.049-10.147-4.531-6.971-19.792-1.521-28.267A51.289,51.289,0,0,1-263.137-41.7a16.2,16.2,0,0,0-8.4,1.11c-9.1,4.261-11.353,12.485-11.893,17.2-.169,1.466-1.987,1.977-2.43-.057.733-5.97,2.843-14.368,13.173-19.133a17.67,17.67,0,0,1,12.176-.895A30.97,30.97,0,0,1-246.4-48.1c9.549-.685,12.156,8.323,9.992,12.769-.365.749-1.82,1.333-2.308-.555,1.879-8.494-4.922-9.438-7.467-9.321A21.389,21.389,0,0,0-256.5-41.919a18,18,0,0,1,3.01,1.936l.1-.049c2.391-1.094,11.344-3.489,13.629,5.816.9,3.665.185,8.082-1.21,12.075l.856,1.34q.524.819.818.8c.11-.012.255-.125.441-.344l.783-.987,1.763-2.26a23.151,23.151,0,0,0,1.747-2.336,2.433,2.433,0,0,0,.348-1.238c0-.8-.47-1.269-1.409-1.407l-.766-.124c-.412-.064-.6-.249-.581-.567s.234-.492.6-.492" transform="translate(350.771 112.12)" fill="#fff"/><path d="M-2.5-5A2.218,2.218,0,0,1-4.717-7.217,2.218,2.218,0,0,1-2.5-9.433,2.218,2.218,0,0,1-.286-7.217,2.218,2.218,0,0,1-2.5-5m0-4.12a1.907,1.907,0,0,0-1.9,1.9,1.906,1.906,0,0,0,1.9,1.9,1.906,1.906,0,0,0,1.9-1.9,1.906,1.906,0,0,0-1.9-1.9" transform="translate(213.871 85.837)" fill="#fff"/><path d="M0-.066A3.51,3.51,0,0,1,.667-.124,1.094,1.094,0,0,1,1.447.1a.7.7,0,0,1,.211.523.718.718,0,0,1-.508.7v.014a.683.683,0,0,1,.4.554,4.33,4.33,0,0,0,.208.753H1.395a3.676,3.676,0,0,1-.181-.657c-.078-.379-.223-.521-.539-.534H.347v1.19H0ZM.347,1.185H.7c.372,0,.608-.208.608-.521,0-.356-.252-.509-.62-.514A1.393,1.393,0,0,0,.347.182Z" transform="translate(210.642 77.31)" fill="#fff"/><path d="M-4.823,0V.939H-6.375V5.8H-7.543V.939H-9.1V0Z" transform="translate(106.986 112.544)" fill="#fff"/><path d="M-5.453,0V5.8H-6.621V3.33h-2.5V5.8h-1.168V0h1.168V2.384h2.5V0Z" transform="translate(115.468 112.544)" fill="#fff"/><path d="M-1.319-1.07V.383H.641V1.3h-1.96V2.841H.892v.946h-3.38V-2.018H.892v.948Z" transform="translate(115.825 114.553)" fill="#fff"/><path d="M-3.852-4.866a1.89,1.89,0,0,0,.5-1.4,1.935,1.935,0,0,0-.5-1.416A1.894,1.894,0,0,0-5.271-8.2H-6.1v3.829h.826a1.923,1.923,0,0,0,1.418-.5m.237-3.952A2.546,2.546,0,0,1-2.538-7.8a3.02,3.02,0,0,1,.38,1.532,2.985,2.985,0,0,1-.38,1.525A2.565,2.565,0,0,1-3.615-3.737,3.485,3.485,0,0,1-5.23-3.38H-7.265v-5.8H-5.23a3.48,3.48,0,0,1,1.614.358" transform="translate(131.367 121.721)" fill="#fff"/><path d="M282.723-140.859h-1.168v-5.8h1.168Z" transform="translate(-149.301 259.2)" fill="#fff"/><path d="M-4.9-2.053a1.358,1.358,0,0,0-.551-.556A1.675,1.675,0,0,0-6.268-2.8a1.794,1.794,0,0,0-.917.233,1.615,1.615,0,0,0-.627.664,2.136,2.136,0,0,0-.225,1A2.129,2.129,0,0,0-7.808.106,1.617,1.617,0,0,0-7.169.77,1.889,1.889,0,0,0-6.217,1,1.655,1.655,0,0,0-5.124.651a1.68,1.68,0,0,0,.558-.985h-2v-.889h3.154V-.21a2.7,2.7,0,0,1-.5,1.121,2.822,2.822,0,0,1-.988.827,2.929,2.929,0,0,1-1.357.311,3.083,3.083,0,0,1-1.522-.378A2.756,2.756,0,0,1-8.85.62,3,3,0,0,1-9.238-.907,3.029,3.029,0,0,1-8.85-2.438,2.749,2.749,0,0,1-7.782-3.493a3.061,3.061,0,0,1,1.514-.379,3.042,3.042,0,0,1,1.712.478,2.433,2.433,0,0,1,1,1.341Z" transform="translate(145.697 116.341)" fill="#fff"/><path d="M310.544-140.859h-1.168v-5.8h1.168Z" transform="translate(-164.054 259.2)" fill="#fff"/><path d="M-4.823,0V.939H-6.376V5.8H-7.544V.939H-9.1V0Z" transform="translate(158.599 112.544)" fill="#fff"/><path d="M-4.079-4.257l-.842-2.426-.844,2.426Zm.317.93h-2.32l-.383,1.1H-7.692L-5.6-8.028h1.361l2.094,5.805H-3.378Z" transform="translate(164.129 120.564)" fill="#fff"/><path d="M-1.319-5.5H.6v.922H-2.487v-5.8h1.168Z" transform="translate(167.427 122.923)" fill="#fff"/><path d="M-1.319-1.07V.383H.641V1.3h-1.96V2.841H.892v.946H-2.487V-2.018H.892v.948Z" transform="translate(177.582 114.553)" fill="#fff"/><path d="M-4.231-6.545-5.491-8.5-6.633-6.545H-7.952l1.836-2.924-1.862-2.874h1.345L-5.373-10.4l1.134-1.944H-2.92L-4.748-9.427l1.861,2.883Z" transform="translate(189.422 124.886)" fill="#fff"/><path d="M-3.174-2.723a.807.807,0,0,0,.233-.617c0-.566-.317-.847-.951-.847h-.926V-2.5h.926a1.013,1.013,0,0,0,.718-.221m1.215.253a1.624,1.624,0,0,1-.693.657,2.534,2.534,0,0,1-1.189.249h-.976V.661H-5.986v-5.8h2.144A2.606,2.606,0,0,1-2.69-4.9a1.631,1.631,0,0,1,.713.64,1.8,1.8,0,0,1,.239.923,1.807,1.807,0,0,1-.222.87" transform="translate(195.584 117.68)" fill="#fff"/><path d="M-1.319-1.07V.383H.641V1.3h-1.96V2.841H.893v.946h-3.38V-2.018H.893v.948Z" transform="translate(199.328 114.553)" fill="#fff"/><path d="M-1.319-3.009h.976a.984.984,0,0,0,.71-.227A.852.852,0,0,0,.6-3.872.807.807,0,0,0,.367-4.49a1.006,1.006,0,0,0-.71-.221h-.976ZM.516.122-.769-2.137h-.55V.122H-2.488v-5.8H-.3a2.558,2.558,0,0,1,1.151.237,1.67,1.67,0,0,1,.714.64,1.743,1.743,0,0,1,.238.9,1.727,1.727,0,0,1-.333,1.034,1.726,1.726,0,0,1-.994.635L1.868.122Z" transform="translate(205.938 118.219)" fill="#fff"/><path d="M-4.823,0V.939H-6.376V5.8H-7.544V.939H-9.1V0Z" transform="translate(219.756 112.544)" fill="#fff"/></g></g></g></svg>